<?xml version="1.0" encoding="utf-8"?>
<svg version="1.1" xmlns="http://www.w3.org/2000/svg" xmlns:xlink="http://www.w3.org/1999/xlink" x="0px" y="0px"
	 viewBox="0 0 1920 1080" xml:space="preserve">
	 <defs>
	 	<linearGradient id="lgrad-p" gradientTransform="rotate(75)">
			<stop offset="55%" stop-color="#bd9cf2"></stop>
			<stop offset="79%" stop-color="#b4fe65"></stop>
			<stop offset="99%" stop-color="#fe7c65"></stop>
		</linearGradient>
	 </defs>
<style>
	#lines-bg {
		fill: url(#lgrad-p);
		opacity: .05;
    filter: blur(10px);
	}
</style>
<g id="lines-bg">
	<g>
		<path d="M1525.1,31c9.3-8.1,19.3-19.2,29.9-31h-22c-8.7,7.6-18.1,14.5-28.8,20.7c-35.2,14.6-75.7-4.1-107-19.9
			c-0.5-0.3-1.1-0.6-1.6-0.8h-65.9C1390,39.1,1464.8,83.6,1525.1,31z"/>
		<path d="M1021.9,0h-8.6c-3.2,1.5-6.5,2.8-9.9,4c-22.2,7.4-45.1,3.6-66.8-4h-28.4C947.8,16.6,985.1,23,1021.9,0z"/>
		<path d="M1744.7,90.2c11,31.8,34,77.2,75.2,57c28.1-13.8,39.6-50.8,50.7-77.3c11.3-27.2,21-52.8,40.9-69.9h-17.4
			c-24.6,28.7-34.5,71.5-64.1,99.9c-17.8,17.1-47,25.7-67.2,7.2c-20.4-18.7-24.3-52.5-29.1-78.1c-1.5-8.2-2.9-18.2-4.6-29h-14.4
			C1727.1,28.7,1734.2,59.6,1744.7,90.2z"/>
		<path d="M1476.1,110.7c45-39.6,92.7-130,163.5-80.2c42.3,36.4,59.3,87.8,87.6,134.2c19,31.1,49,65.5,90,49.8
			c31.3-11.9,44.9-52.9,56.8-80.4c11.8-27.5,22.5-56.6,46.1-72.4v-13c-42.4,25.8-43.6,95-78.4,130.5c-52.9,53.9-97-34.2-112.4-73.9
			c-11.5-29.6-23.9-75.8-46.9-105.3h-114.5c-34.8,29.8-60.5,75-100.3,97.5c-72.5,22-147-48-203.9-83.6c-7.1-4.4-14.7-9.2-22.8-13.9
			h-67.4c35.1,13,68.6,42.7,92.8,62.1C1326.2,102.7,1407.4,171.1,1476.1,110.7z"/>
		<path d="M82.3,59.3C98.6,40.6,114.8,19.1,132.8,0h-37C67.1,31,37.8,66.1,0,78.4V134C33,118.6,60.3,84.5,82.3,59.3z"/>
		<path d="M451.3,30.6c34,4.6,60-8.2,84.3-30.6h-13.1c-18,13.3-38.6,21.4-63.5,19.1c-22.7-2.1-44.8-9.4-66.3-19.1h-22.7
			C395.5,13.9,422.6,26.7,451.3,30.6z"/>
		<path d="M1039,74.4c25.6-21,42.3-59.6,72.9-74.4h-19.5c-25.2,29.3-40.4,69.9-78.4,84.2c-31.9,12.1-66.2-1.1-95-15.2
			c-40.3-19.7-77.8-44.9-115.6-69h-29.8c43.4,24.2,84.7,52.3,129.1,74.7C948.9,98,997.3,113.3,1039,74.4z"/>
		<path d="M451.7,98.6c34.4,6.3,62.3-9.7,86.4-32.6c19.9-20.1,37.1-45.2,57.5-66H585c-10.2,12.3-19.9,25.2-29.9,36.9
			C530,66.1,500,92,458.9,87.6c-54.8-5.9-102.6-53.3-143.5-85.7c-0.8-0.6-1.5-1.2-2.3-1.8h-4.5c20.5,17.3,39.6,36.3,57.1,50.4
			C390.7,70.5,419.3,92.7,451.7,98.6z"/>
		<path d="M20.3,0C14,3.9,7.2,7.2,0,9.7v55.5C28.8,51.9,50.2,26.6,70.8,0H20.3z"/>
		<path d="M818.6,948c-36.8-40.5-84-84.6-137.8-44.8c-45.4,33.6-75.3,87.1-108.9,131.4c-10.8,14.2-22.9,30.9-37,45.4h9.6
			c0.7-0.8,1.5-1.6,2.2-2.5c40.1-47,72.4-109,123.4-145.4c41.6-29.7,81.9-10.9,116.7,20c41.8,37.2,74.2,83.7,115.5,121.4
			c2.4,2.2,4.9,4.4,7.3,6.4h16.8c-2.9-2.3-5.7-4.7-8.4-7.3C879,1036.9,850.1,990.2,818.6,948z"/>
		<path d="M116.5,1071.9c-3.2,2.6-6.3,5.3-9.4,8.1h58.6c10.3-1.5,20.7-1.4,31.3,0h64.7C215.3,1052.2,164.3,1033.4,116.5,1071.9z"/>
		<path d="M1116.4,999.4c-30.5,21.4-51.7,57.3-81.2,80.6h4.7c30.8-25.2,57-63,95.8-74.7c56.7-17.1,114,32.7,155.5,63.7
			c5.2,3.6,10.4,7.3,15.6,11h30.6c-23.8-16.5-46.2-35-69.6-52C1223.4,995.4,1168.2,963.1,1116.4,999.4z"/>
		<path d="M793.6,1058c-42-28.2-96.6-60.4-146.4-30.6c-21.5,12.9-38.7,32.2-54.5,52.7h11.5c10.7-11.2,22.3-21.2,35.5-28.9
			c38.9-22.7,84.2-6.4,120.3,13.9c7.7,4.4,15.7,9.4,23.9,15h34.9C809.9,1072,801.5,1064.4,793.6,1058z"/>
		<path d="M222.8,951.5c-29.4-4.8-54.6,10.5-76.6,28.3c-33.5,27.2-65.3,71.2-103.1,100.1h39.3c26.2-31.5,52.5-63.1,88.3-84.1
			c74.3-29.1,140.6,38.7,195,80.1c1.7,1.3,3.4,2.6,5.2,3.9h19.9c-24.5-19-46.9-42.3-66.7-59.4C296,993.5,263.2,958.1,222.8,951.5z"
			/>
		<path d="M1605,1001.4c-25-12.8-88.7-51.8-117.7-30.4c-2.9,2.2-5.3,4.8-7.1,7.9c0.1-1.7,0.2-3.5,0.4-5.3c-0.1,1.8-0.3,3.6-0.4,5.3
			c-6,9.9-7,23.9-5.9,38.1c0.8-1.4,1.7-2.6,2.7-3.8c0.3-0.3,0.7-0.7,1-1c-0.4,7.5-0.9,15.1-1.5,22.7c-1-5.8-1.8-11.9-2.2-17.9
			c-5.9,10.5-3.5,26.6-2,37.2c0.3,2.2,0.7,4.4,1.1,6.6c-1.1,6.5-2.5,12.9-4.3,19.2h16.2c-0.8-3.4-1.5-6.7-2.1-9.8
			c-0.5-19.9-2.4-39.7-3.2-59.6c18.9-13.8,57.8,5.8,73.8,11.8c43.5,16.4,85.5,36.4,126.9,57.6h61.2
			C1696.8,1052.8,1651.8,1025.3,1605,1001.4z"/>
		<path d="M1567.5,949.3c78.8,33.8,148.7,84.6,220.7,130.7h28c-22.2-15.7-43.4-33.1-64.1-49.3c-48.3-37.9-95.6-78.4-147.9-110.8
			c-24.2-15-70.1-44.7-98.1-22.5c-19.8,15.7-23.8,48.9-25.7,76.2c1-12,3.3-26.1,11.9-34C1511.9,921.7,1548.9,941.4,1567.5,949.3z"/>
		<path d="M1916,1049c-30.6,14.9-61.4,25.9-92.5,6.7c-36.5-22.6-65.4-59-93.2-91.1c-34-39.2-66.5-80.5-105-115.5
			c-23.6-21.5-57-49.8-90.2-31.1c-33.1,18.6-47.3,66.8-59.5,100c-15.7,42.5-28,88.9-60.1,122.3c-62.9,38.4-123-42.4-163.6-80.6
			c-38.6-36.4-86.3-63-135.4-28.6c-41.1,28.8-65.3,83.9-115.5,99.2c-34.6,10.6-57.3-9.6-76.3-36.9c-33.6-48.2-54.2-105.9-78.8-159
			c-15.1-27.4-32.1-62.6-60.7-78.7c-24.5-13.9-47.1-0.3-66.3,16c-53.8,45.8-90.4,112-131.3,168.6c-24.6,34-70.9,111.2-122.5,104.3
			c-50.5-6.8-86.8-78.5-113.2-114.5c-19.5-29.3-45.1-74.9-82.8-83.6c-31.7-7.3-63.8,17.6-86.8,36.2c-34.3,27.7-64.4,60.1-96.6,90.1
			c-25.2,23.4-52.8,49.5-85.7,61.4v45.9h19.6c26.7-18.7,49.7-47.2,68.9-68.4c38.3-42.3,75.2-88.2,124.6-118
			C289.7,860,340.2,943.2,382.8,994c18.7,22.3,40.6,49.5,69.1,59.5c44.6,15.7,80.6-32.1,105.2-61.9c49.3-62.2,89.4-139,150.5-190.8
			c16.9-14.3,38.1-28,60.7-19.9c22,7.9,38.1,30.3,50.7,48.7c36.5,53,59.6,114.1,96.8,166.6c12.7,17.8,29,39.3,51.7,44.2
			c24,5.2,46.5-8.7,64.5-22.8c34.5-25,61.6-67.6,103.6-80.8c54.1-16.9,100.8,30.4,136.4,63.7c31.3,27.5,64.1,60.9,104.8,74
			c40.2,13,64.7-7.3,79.1-44.2c15.8-40.3,20-84,34.7-124.6c5.8-16,13.4-36.4,29-45.4c23.2-13.4,48.1,1.3,68.6,12.8
			c69.9,40.3,125.5,100.4,185.5,153.5c19.9,17.6,43.5,40.8,69.6,53.3h70.8c1.9-0.8,3.9-1.6,5.8-2.5V1047
			C1918.7,1047.7,1917.3,1048.4,1916,1049z"/>
		<path d="M1116.4,1067.7c-5.3,3.7-10.3,7.9-15.1,12.3h19.3c4.9-2.5,9.9-4.6,15.2-6.2c23.2-7.2,47.5-3.1,71.2,6.2h46.1
			C1210,1055.9,1160.5,1036.9,1116.4,1067.7z"/>
		<path d="M119.8,713.1c48.6-49.6,96.9-110.2,158.1-144.8c37.8-17.6,63.3-7.5,83.3,28.3c18.8,33.6,28.8,71.5,42.4,107.3
			c9.8,25.7,22.6,62.2,49.3,75.4c43.1,21.3,92.2-39.7,117.1-65.4c63-66.9,118.1-148.7,192.4-203.9c17.7-13.1,41.4-28.4,63.8-17.7
			c22.4,10.7,35.4,39.4,45.1,60.7c30.5,67,45,140.4,77.9,206.3c10.2,20.5,24.3,47.2,48.5,53.2c22.3,5.5,48.7-9.1,64.8-22.7
			c3.6-3,7.1-6.3,10.6-9.7c-10.6,9.7-22.2,17.9-35.9,23.1c-37.2,14.4-60.5-5.5-78.5-37.7c-31.1-55.8-46.6-120.7-67.8-180.6
			c-12.3-31.1-27.2-81.1-59.5-98.3c-22.7-12-46.4,1.5-65.3,14.9c-61.8,43.9-109,108.4-159.5,164.3c-24.1,26.7-48.6,53.7-76.4,76.6
			c-17.2,14.1-39.7,32-63.6,29c-51.9-6.4-70.4-101.9-83.9-139.7c-11.1-31.6-25.8-85.9-63-97.2c-34.9-10.5-74.6,23.9-99.2,43.9
			c-43.1,34.9-82,74.7-123.2,111.8c-25,22.5-60.5,59.5-97.4,72.2v54.5c15.7-8,30.1-19.9,43-30.6C70.1,763.6,95.1,738.3,119.8,713.1z
			"/>
		<path d="M1103.5,747c-10.2,11.2-20,22.7-30.3,32.9C1084,770,1093.7,758.6,1103.5,747z"/>
		<path d="M1161.3,701.8c43.8-16.7,79.2,10,104.2,43.5c18.5,22.4,36.6,46.9,65.4,56.2c37.6,12.2,66.2-8,88.7-36.8
			c25.5-32.7,43.2-70.7,68.5-103.6c11.2-14.5,24.4-29.3,40.9-37.8c25.1-13,45.5-5,68.2,8.5c48,35.8,82.4,85.9,126,126.4
			c31.5,29.2,64.5,51.3,108.3,39c30.4-8.5,59.8-21.6,88.5-36v-27.7c-12.8,5.4-25.8,10.5-38.8,15.2c-31.6,11.4-64.7,22.2-97.9,11.5
			c-33.4-10.7-62.5-35.3-89.3-57c-42-34.1-117.8-119.7-179.8-90.8c-28.2,13.1-44.3,45.4-58.4,71.1c-17.3,31.7-33.1,64.6-63,86.4
			c-56.5,24.9-90.5-20.3-126.5-54.9c-33.4-32.1-80.6-40.2-119.5-11.9c-16.4,11.9-29.8,28-43.4,44
			C1120.5,728.3,1138.4,710.5,1161.3,701.8z"/>
		<path d="M102.1,111.8c35-37.7,69.5-83.6,113.6-111.8h-41.3c-3.7,2.8-7.4,5.7-10.8,8.5c-32.2,26.2-60.1,57.1-90.3,85.4
			C52.7,113.3,28.1,136.7,0,146.6V202C40.1,183.6,74.6,141.4,102.1,111.8z"/>
		<path d="M119.8,781.5c48.6-49.6,96.9-110.2,158.1-144.8c38.9-18.2,64.6-6.2,84.7,30.6c18,32.9,27.7,70.1,41.1,104.9
			c10,26,23.1,64.2,51.2,76.3c44,19,90.2-48,112.9-74.9c35.3-42.9,68.2-87.6,102.3-131.5c26.5-34.1,53.6-70,87-97.8
			c16-13.3,37.2-28.8,58.7-19.4c22.9,10,35.5,42.3,44.3,63.1c28.5,67.4,41.3,140.5,71.2,207.3c9.4,21,22.9,51.1,47.2,58
			c22.7,6.4,49.5-8.5,65.9-22.4c32.9-27,58.4-71.4,99.8-86.6c48.2-17.7,82.2,18.4,105.4,55.8c17.9,26.5,35.6,58.4,67.5,69.8
			c40.3,14.4,73-17.9,96.8-46.6c32.2-38.9,57.3-83.2,88.8-122.6c15.1-18.9,31.9-38,53.7-49.4c26.3-13.8,43.3-5.6,64.5,13.2
			c43.8,47.1,67.9,108.7,102.8,162.1c24.1,36.9,52.2,74.7,100.1,60c33.3-10.2,65.2-26.4,96.2-44v-26.1
			c-15.3,7.4-30.7,14.6-46.3,21.1c-31.6,13.2-67.1,29.3-98.9,9.3c-30.6-19.2-52.3-52.9-72.5-81.9c-24.5-35.1-46.8-72.5-75.9-104.2
			c-22.7-24.7-48.9-45.1-82.1-27.4c-34.2,18.1-56.5,56.2-76.9,87.7c-26.3,40.6-50.6,83.6-89.4,113.6c-64.2,33.5-96.4-28-131.1-70.4
			c-30.7-37.5-76.8-49.9-118.1-20c-40.3,29.1-63.2,83.3-112.1,100.5c-39.5,14-61.5-12.2-77.9-46.2c-27.2-56.5-41.3-119.5-60.5-179
			c-11.4-31.4-24.8-82.9-56.7-100.8c-23.1-12.9-46.2,3.5-64,18.3c-61,50.8-105.7,121.6-154.4,183.6c-23.2,29.5-46.7,59.5-74,85.5
			c-16.1,15.3-38.1,36.2-62.4,33.4c-51.8-5.9-70.6-102.4-83.9-139.7c-11.1-31.6-25.8-85.9-63-97.2c-34.9-10.5-74.6,23.9-99.2,43.9
			c-43.1,34.9-82,74.7-123.2,111.8C72.4,781.1,36.9,818,0,830.7v54.5c15.7-8,30.1-19.9,43-30.6C70.1,832,95.1,806.7,119.8,781.5z"/>
		<path d="M1786.6,672.1c-34.8-4.9-68.3-17.8-100.9-30.6c-36.8-14.4-73.1-30.6-110.9-41.9c-26.8-8-63.5-17.6-90.8-7.3
			c-47,17.7-33.3,89.5-75.9,113.1c-47.1,20.4-88.6-17.3-123.8-41.4c-36-24.7-83.5-29.7-120.1-3.3c-40.7,29.3-64.4,85.4-114.6,101.1
			c-33.5,10.5-55.3-6.4-72.9-34.4c-34.4-54.7-51.5-121.2-74.6-181.1c-13.4-31.1-28.2-74.3-58.7-93.2c-22.2-13.7-46.2-3.1-66.6,8.9
			c-63.3,37.2-114.2,97.7-166.7,147.9c-26.8,25.7-54.1,52-85.2,72.6c-18.1,12-41.3,25.5-63.8,19.1c-48-13.6-64.4-99.7-78.2-138.5
			c-11.1-31.6-25.8-85.9-63-97.2c-34.9-10.5-74.6,23.9-99.2,43.9c-43.1,34.9-82,74.7-123.2,111.8C72.4,644.3,36.9,681.3,0,694v54.5
			c15.7-8,30.1-19.9,43-30.6c27.2-22.6,52.1-47.9,76.8-73.2c48.6-49.6,96.9-110.2,158.1-144.8c37.8-17.6,63.3-7.5,83.3,28.3
			c18.8,33.6,28.8,71.5,42.4,107.3c9.8,25.7,22.6,62.2,49.3,75.4c41.9,20.7,92.3-32.4,119.5-56.6c65.1-59.4,123.5-133.5,198.4-181
			c18.7-11.8,42.8-24.5,64.9-14.5c22.6,10.1,36.4,37.9,46.7,58.9c32,65.1,48.3,137.2,82.7,201.1c10.9,20.3,25.6,46,50,51.6
			c22.5,5.2,48.5-9.2,64.8-23c33-26.9,58.5-71.3,99.7-86.6c39.7-14.7,77.7,4.1,105.2,32.3c38.6,34.7,101.7,72.2,141.4,16.4
			c16.9-23.8,24.8-52.6,41.3-76.6c25.5-36.9,59.5-35.9,99.6-24c88,33.6,172.6,119.7,273.3,96.2c27.2-6.3,53.6-16.2,79.6-27.3V650
			c-10.6,3.8-21.1,7.4-31.7,10.6C1855.3,670.6,1821.1,676.9,1786.6,672.1z"/>
		<path d="M1681.4,576.2c-41.5-7.3-82.8-15.5-124.6-20.9c-27.5-3.6-63-10.5-90.2-2.3c-40.6,12.3-13.2,67.9-48,85.2
			c-43.9,14.5-85.9-11.9-122.6-31.5c-38.1-20.3-85.8-26.5-122.7-0.8c-40.7,28.3-64.1,82.5-113.1,98.9c-33.8,11.3-55.8-3.9-74.6-32.2
			C949.3,618.2,931,551,906.6,490.8c-13.7-30.5-28.9-72.7-59.3-90.9c-22.2-13.3-45.9-1.9-66.3,9.7
			c-62.9,35.6-115.2,91.1-169.3,138.2c-27.5,23.9-55.4,48.3-86.6,67.4c-18.3,11.2-41.8,24.4-64,18.2c-48-13.5-64.4-99.8-78.2-138.5
			c-11.1-31.6-25.8-85.9-63-97.2c-34.9-10.5-74.6,23.9-99.2,43.9c-43.1,34.9-82,74.7-123.2,111.8c-25,22.5-60.5,59.5-97.4,72.2v54.5
			c15.7-8,30.1-19.9,43-30.6c27.2-22.6,52.1-47.9,76.8-73.2c48.6-49.6,96.9-110.2,158.1-144.8c37.8-17.6,63.3-7.5,83.3,28.3
			c18.8,33.6,28.8,71.5,42.4,107.3c9.8,25.7,22.6,62.2,49.3,75.4c40.8,20.2,92.6-29.3,120.7-51.9C640.2,536,701.1,468.1,776,424.6
			c18.8-11,43.3-23.3,65.1-13.8c22.5,9.8,36.8,36.9,47.5,57.6c32.9,63.7,50.4,134.5,85.5,197.1c11.2,19.9,26.3,45.1,50.4,50.5
			c22.5,5,48.3-9.5,64.4-23.4c34-25.5,60.9-68.5,102.5-82.3c37-12.3,79,3,107.9,26.8c31.8,20.5,104.9,58.6,132.6,13.9
			c10.4-16.9,8.3-39.2,19.2-56c19-29.3,61.3-19.4,90.3-16c100.8,13.9,202.4,60.1,305.5,39.8c24.8-4.9,49.1-12.5,73.1-21.2v-25.1
			c-10.3,3.2-20.7,6.2-31,8.9C1819.3,599.6,1751.2,588.4,1681.4,576.2z"/>
		<path d="M119.1,850.4c48.5-49.7,96.8-109.9,157.9-144.6c39-18.4,64.8-6.9,85.3,30.1c18.2,32.8,27.9,69.9,41.4,104.7
			c10,26,23.1,64.2,51.2,76.3c45.4,19.6,90-50.4,112-78.5c34.6-45.8,66.7-93.4,100-140.2c25.7-36.1,52-74.5,85.3-104.3
			c15.6-14,36.6-30.1,58.4-20.7c22.9,10,34.9,42.8,43.3,63.6c27.4,68.3,38.8,142.1,67.5,209.9c9,21.1,21.9,51.7,46.1,58.5
			c22.6,6.4,49.5-9,65.7-22.8c33.8-25.7,60.7-68.8,102.7-82.1c52-16.6,84.8,23.8,108.6,63.6c17.8,27.9,35.9,63,69.1,74.8
			c41.5,14.7,74.6-18.9,99-48.3c34.4-41.4,61.1-88.5,94.5-130.5c15.7-19.7,34-41.8,57.7-52c24.9-10.7,41.3-2.5,60.2,15.4
			c46,49.2,68,115.8,99.9,174c21.7,39.7,45.8,80.9,96.2,66.3c34.5-10,67.3-27.5,99.1-46.4v-23.3c-17.9,9.5-36,18.5-54.6,26.7
			c-30.7,13.5-66.7,30.8-96.2,7c-29.5-23.9-46.4-63.7-62.5-97.1c-20-41.5-37.4-85.4-63.4-123.6c-18.9-27.7-44.1-51.7-78.5-34.4
			c-40.2,20.2-68.3,67.9-92.9,103.4c-31,44.8-60.2,92.7-103.4,126.9c-68.1,37-99.8-34.8-132.3-80.7c-29.2-41.2-75.1-57.1-118.8-26.2
			c-40.5,28.7-63.9,82.7-112.8,99.4c-38.9,13.3-59.7-11-75.6-43.9c-28.2-58.6-40.9-124.8-59.6-186.9c-10.5-31.3-22.6-82.3-53.5-101
			c-22.6-13.7-44.5,2.2-61.8,17.5C692.1,636,648.8,714.3,601.1,781.2c-23.5,33-47.3,66.7-76,95.4c-15.3,15.2-36.6,35.3-60.3,31.2
			c-51.2-9-68.2-100.9-81.9-139.4c-11.1-31.6-25.8-85.9-63-97.2c-34.9-10.5-74.6,23.9-99.2,43.9c-43.1,34.9-82,74.7-123.2,111.8
			c-25,22.5-60.5,59.5-97.4,72.2v54.2c15.8-8,30.3-19.7,43.4-30.6C70.2,900.3,94.7,875.3,119.1,850.4z"/>
		<path d="M107.6,928c45.6-47.9,89.7-100.5,146.5-135.5c38.9-18.3,65.7-8.2,90.8,25.7c21.7,29.2,36.1,63.4,53.1,95.4
			c13.3,25,29.7,59.4,57.4,71.3c44.2,19,88.1-47.5,110-75.3c56.9-74.6,103.3-164.5,173.1-228.2c17.6-16.1,40.5-35.8,64.8-22.3
			c20.2,11.3,32.8,38.8,42,58.7c29,62.6,44.1,130.7,73.1,193.3c9.4,20.3,23.8,52.4,47.2,60.3c22.8,7.8,49.9-7.7,66.5-22.1
			c34.4-25.1,61.6-67.6,103.7-80.6c52.5-16.2,88.6,26.6,118,63.6c23.3,27.8,48,63.1,84,74.9c40.9,13.4,70.7-15.5,91.9-47.3
			c26.8-40.2,44.4-85.7,69.8-126.7c11.7-18.9,25.3-38.6,45.2-49.5c25.3-13.9,44.1-2.9,64.9,13.5c55.1,45.5,91.3,109.2,133.8,165.7
			c26.1,34.7,55.2,78.7,103.7,64.3c25.4-7.5,49.6-19.9,73-34v-26.7c-13.1,7.1-26.5,13.9-40,20.2c-29.9,13.8-67.6,31.9-97.4,9.5
			c-31.3-23.6-51.2-64.6-70.2-97.9c-23.9-41.9-45.6-86.1-75.3-124.2c-21.4-27.4-47.2-50.4-82-30.7c-37.1,21-60.2,64.3-81.3,99.7
			c-27,45.2-51.6,94.3-92.7,128.4c-117.2,63.2-141.9-194.8-264.6-108.6c-40.9,28.7-65.3,84.3-115.4,99.3
			c-38.5,11.6-58.6-15.1-74.5-47.4c-28-56.8-42.3-120.4-61.6-180.5c-11.4-30.7-24.9-80.1-56.2-97.6c-23.8-13.3-47,6.1-64.2,22.1
			c-58.8,54.8-99.7,128.9-145.6,194.1c-21.5,30.6-43.5,61.7-69.8,88.5c-15.5,15.8-37.7,38.1-62.1,35c-49.7-6.4-75.4-96.9-92.2-133
			c-13.2-30.5-31.6-84.6-68.4-94.9c-33.3-9.3-71.5,23.6-95.1,42.7C171.5,823.1,135.8,860,98,894.5C72.1,918.1,37.3,954,0,967v55.7
			C42.2,1003.6,78.6,958.4,107.6,928z"/>
		<path d="M119.8,508c48.6-49.6,96.9-110.2,158.1-144.8c36.5-16.9,61.5-8.9,82,25.7c20,33.9,29.8,73.3,43.8,109.8
			c10.2,26.6,23,63.6,51.2,76.1c39.5,17.4,90.5-30.4,117.7-52.2c63.6-51.7,121.4-115.9,192.6-157.5c18.4-10.7,43-23.9,64.2-13.9
			c6.9,3.3,13.1,8.1,18.8,13.8c4.6,6.2,9,12.3,13.3,18c3.7,5.1,7.4,10.3,11,15.5c1.9,3.2,3.7,6.4,5.5,9.5
			c35.4,61.5,57.9,130,95.8,190.2c12,19.1,27.9,43.9,51.5,49.7c22.2,5.4,47.8-8.7,63-23.4c32.1-26.1,56.5-69.2,98.1-81.2
			c39.6-11.4,82.7,5.7,114.7,28.8c29.8,16.8,108.6,55.2,133,12.5c7.2-12.7,2.9-29,8.6-42.1c13.7-31.9,63.4-19.4,89-16.8
			c62.3,3.4,123.8,13.9,185.6,22.2c43.1,5.8,87,11.1,130.3,4.3c24.6-3.9,48.8-11,72.5-19.5v-14.9c-10.7,4.1-21.5,7.9-32.3,11.2
			c-70.8,21.3-139.1,6.4-209.1-11c-41.4-10.3-82.7-21.6-124.8-28.8c-27.3-4.6-63.3-11.3-90.4-1.9c-38.7,13.5-15.6,67.5-50,84.7
			c-89,30.2-164.2-100.7-251.3-35.2c-37.1,27.9-53.9,81.6-99.3,99c-33.1,12.7-56.7-3.2-76.5-29c-40-52.1-64.6-116.8-94.4-174.9
			c-3.5-6.4-7-13.3-10.8-20.3c26.6,40.6,51.4,82.6,82.3,120.1c30,36.6,79.9,73.3,117.9,23.6c24.6-27.5,38.5-70.9,76.2-83.8
			c41.6-14.2,87.8,10.5,120.5,33.9c34.2,22.1,108.7,62.6,141,16.7c10.3-14.7,11.2-33.7,20.7-48.7c19.2-30,62.8-19.7,91.8-15.1
			c60.1,9.2,116.6,31.4,174.2,50c18,5.8,36.5,11.7,55.3,15.9c6.3,1.9,12.3,3,18.2,3.4c18.3,2.8,36.7,3.4,55.2,0.2
			c30-5.1,58.5-18.9,85.4-34.5V480c-19.1,13-38.3,25.1-58.3,34.1c-17.4,7.8-34.5,11.5-51.3,12.2c0.6-0.1,1.2-0.3,1.8-0.5
			c40.8-11.3,73.9-49.3,102.2-78.5c1.8-1.9,3.7-3.9,5.6-5.9v-25.1c-29.6,32.5-56.3,70.3-88.2,93.3c-11.6,8.4-23,14.1-34.7,16.6
			c-7.8-0.4-15.5-1.4-23.1-2.8c4.7-0.5,9.3-1.6,14-3.7c37-16.4,60.2-61.9,79.9-94.6c15-24.8,30.5-56.6,52.1-79.6V327
			c-18.6,15.6-32.1,38.1-44.9,59.2c-21.1,34.8-39.3,73.6-67.4,103.6c-23.1,24.7-47.6,32.7-78.2,14.3c-34.3-20.6-60.8-54.1-86.3-84
			c-28.9-33.8-56.3-69.4-88.6-100.1c-24.6-23.3-54.3-47.9-90.1-37.9c-59.6,16.7-80.3,89.8-132.9,118.5
			c-65.8,19-104.3-27.9-150.3-65.1c-23.8-19.2-90.2-58.1-109.7-14.2c-5.3,12-4.3,27.4-2.8,43.1c1.3-15.8,5.2-30.2,17.5-37.4
			c38.4-22.5,93,24.6,118.7,47.7c47.2,40.6,109.3,82.7,165.6,30.8c20.8-19.2,34-45.3,54.8-64.5c32.4-29.8,65.7-27.2,102.7-6.8
			c57.9,35.7,101.8,88,151.1,134c11.3,10.6,26,25,42.1,36.5c-23.1-14.5-44.5-32.6-65.1-49.5c-32.6-26.8-64.3-55.2-99.6-78.5
			c-26-17.1-56.9-34.5-89-27.2c-54.7,12.5-63.8,82.8-109.8,108.5c-59,16.7-97.9-19.5-141.3-52.2c-29.1-21.9-90.3-53-118.1-13.2
			c-21.1,30.3-6.4,86.9-42.8,106.5c-31.3,16.9-69-10.8-91.9-29.2c-49.5-39.8-91.3-89.2-136-134c-39-37-91.3-94.9-149.9-65.3
			C635.8,292,604.6,335,572,368c-25.8,26.1-67.5,70.6-109.1,60.7c-49.7-11.8-66.1-99.6-80.1-139c-11.1-31.6-25.8-85.9-63-97.2
			c-34.9-10.5-74.6,23.9-99.2,43.9c-43.1,34.9-82,74.7-123.2,111.8c-25,22.5-60.5,59.5-97.4,72.2v54.5c15.7-8,30.1-19.9,43-30.6
			c27.2-22.6,52.1-47.9,76.8-73.2c48.6-49.6,96.9-110.2,158.1-144.8c36.7-16.8,61.4-8.5,81.8,25.6c20.2,33.8,29.9,73.4,44,109.9
			c10.1,26.1,23.1,64,51,76.2c34.4,15.1,71.9-17.5,95.8-38.1c43-38.5,80.4-89.6,131.3-118.2c45.6-25.6,83-1.3,117.2,29.8
			c-5.5-4-11.3-7.4-17.3-10c-20.3-8.9-40.9-1.5-59.2,8.8C672.4,338.6,633,385.3,591.3,424c-29.8,27.7-80,81.3-126.2,73.5
			c-50.9-8.5-68.5-100.8-82.2-139.4c-11.1-31.6-25.8-85.9-63-97.2c-34.9-10.5-74.6,23.9-99.2,43.9c-43.1,34.9-82,74.7-123.2,111.8
			c-25,22.5-60.5,59.5-97.4,72.2v54.5c15.7-8,30.1-19.9,43-30.6c27.2-22.6,52.1-47.9,76.8-73.2c48.6-49.6,96.9-110.2,158.1-144.8
			c37.8-17.4,63.2-7.8,83.4,28.2c18.8,33.6,28.7,71.6,42.4,107.4c10,26.2,22.4,61.6,49.2,75c37.8,19.1,84-23.4,110.5-45.2
			c54.8-46.2,104.2-106.1,167.4-141.2c17.4-9.7,37.6-17.9,57.3-11.1c5.5,1.9,10.8,4.8,15.8,8.2c0.5,0.5,1,1,1.5,1.4
			c8.9,8.3,17.4,16.9,25.9,25.6c1.8,2.2,3.6,4.4,5.3,6.6c-2.1-1.7-4.2-3.3-6.5-4.8c-22.2-14.8-45.5-4.4-66.5,7.6
			c-58.5,33.4-106.3,85.5-156.4,129.7c-23.6,20.8-47.5,41.6-73.8,58.9c-18.5,12.2-44.7,29-68.4,24.7c-51-9.2-68.3-100.7-82.1-139.4
			c-11.1-31.6-25.8-85.9-63-97.2c-34.9-10.5-74.6,23.9-99.2,43.9c-43.1,34.9-82,74.7-123.2,111.8c-25,22.5-60.5,59.5-97.4,72.2v54.5
			c15.7-8,30.1-19.9,43-30.6C70.1,558.5,95.1,533.2,119.8,508z M949.6,467.3c28.8,25.9,97.1,75.5,123.2,18.6
			c13.7-27.3,14.6-73,46.6-87.1c41-18.1,91.6,17.4,121.6,41.3c41.3,31.3,108.7,72.6,154,23.7c15.8-17,22.4-40.7,38.3-57.7
			c26.9-28.9,63.1-21.5,96.9-10.2c58.7,21.4,108.9,58.5,161.7,90.9c9.2,5.7,19.2,11.9,29.6,17.9c2.6,1.9,5.3,3.7,8.1,5.4
			c-20.3-7.9-40.4-17.8-60.4-27.6c-38.1-18.7-75.7-39-115.7-53.4c-25.9-9.3-57.3-18.4-84.9-11.6c-49.6,12.2-37.2,76.8-79.4,96
			c-52.5,18.7-96-18.2-137-43.6c-34.2-21.2-86.5-36.5-119.2-5c-29.7,28.5-32,80.9-70.4,101.1c-33.9,17.9-64-5.9-86.9-29.6
			c-36.5-37.7-65.4-83-95.3-126.6c-8.3-15.6-17.5-31.7-28.8-45.2C883.6,399.5,914.4,435.6,949.6,467.3z M871.6,397.1
			c-6.6-9.8-13.4-19.4-20.5-28.9C859.1,376.9,865.8,387.2,871.6,397.1z M834,345.9c2.9,3.1,5.9,6.1,8.8,9.2c-1.6-1.6-3.3-3-5-4.5
			C836.5,349.1,835.2,347.5,834,345.9z"/>
		<path d="M1072,256.8c14-11,41.2-1.5,54.9,4.6c23.2,10.5,41,28.7,58.6,46.5c49.4,46.1,108.4,88.7,170.1,35.6
			c22.7-19.6,39.7-44.9,61.7-65.3c12.9-12,27.6-22.1,44.8-26.6c25.6-6.8,43.4,2.3,64.4,16.9c54.3,43.4,90.9,103.2,135.2,156
			c24,28.6,64.7,80.9,108.1,59.6c37.3-18.3,57.2-70.4,73.2-105.4c17.9-39.2,37.2-92.8,77.1-113.7v-14.7
			c-63.3,23.1-84,120.3-129.4,165c-62.2,61.3-122.9-17.9-159.2-66.3c-35.4-47.3-90.9-156.1-165.4-135.5
			c-62.1,17.2-88.3,92.9-143.5,122.8c-64.9,18.6-103.3-29.6-147.4-67.8c-21.7-18.8-91.8-64-109.4-17.1c-2.1,5.5-2.7,12.1-2.6,19.2
			C1064.9,264.9,1067.7,260.2,1072,256.8z"/>
		<path d="M116.8,168.4c45.3-46.9,90.2-104.7,148-136.7c36.3-16.2,59.3-6.7,81,26c21.4,32.2,34.8,69.3,52.2,103.6
			c13,25.6,29.1,59,57.1,71.1c30.8,13.3,61.7-9.4,83.1-29.6c29.6-29.8,52.9-70.7,90-92.1c45.7-26.3,92.7,2.1,132.4,26.8
			c59.6,37,113.8,81.9,173.9,118c30.6,18.3,103.8,61.7,123.8,7c1.4-3.7,2.4-8,3.2-12.7c-3.2,9.5-8.5,17.7-17.7,23.3
			c-28.6,17.6-71.3-8.7-94.9-22.6c-54-31.8-103.1-71.9-153.7-108.5c-44-28.3-105.8-76.2-160.5-48.7c-34.1,17.1-55.6,52.5-79.7,80.5
			c-21.8,25.2-54.6,58.2-91.7,49.6c-49.4-11.4-75.3-87.7-95.2-126.9c-6.4-12.3-13.7-27.4-22.6-41.7c12.5,16.8,24.4,34,37.3,50.4
			c18,22.8,39.7,49.8,68.2,59.6c33.6,11.5,63.6-8.1,87.1-30.3c30.4-30.6,54.7-74.1,94.1-94.3c42.6-21.8,86.8,1.7,124.4,23.1
			c56,31.9,107.1,71.6,163.6,102.7c37.9,20.8,97.7,49.2,128.3,2.2c18.2-22.6,23.3-67.4,51.9-79.5c44.6-18.9,98.5,35.2,126.7,61.4
			c55.1,42.6,123,100.5,188.3,43.2c47.1-41.3,89.8-125.1,164.5-84.4c47.1,31.1,71.5,81.2,106.3,123.9c26.5,32.5,56.9,52.6,100.1,42
			c70.3-17.4,71.1-123.9,133.7-149.1V113c-47.3,18.3-58.4,88.2-94.3,122.4c-18.3,17.5-47.8,22.4-71.4,12.6
			c-30.3-12.6-48.8-48-64-74.8c-29.5-51.9-63-140.1-138.3-116.3c-60.9,19.2-88.1,92.3-143.1,122.5c-68.4,20.4-128.3-42.1-179.8-78.1
			c-34.4-24.1-100.3-66.7-137.5-24.5c-25.9,29.4-24.2,82.8-63.2,101c-28.2,13.1-61.4-1.6-86.8-14.5c-54-27.5-102.6-65.4-152.7-99.1
			C745.1,38.4,686.9-1.3,634.7,24.8c-34.1,17.1-55.6,52.5-79.7,80.5c-23.2,26.9-53.8,55.9-92.5,50.2
			c-52.1-7.6-90.2-69.6-120.3-106.9c-0.9-1.1-1.8-2.2-2.8-3.4c-4.9-7-10.2-13.6-16-19.3c-7.7-9-16-18-25-26h-2.7
			c6.6,4.8,13,10.8,19.6,17.8c1.4,1.5,2.8,3,4.1,4.5c-8.1-7-17.1-12.3-27.3-14.8c-33.5-8-70.3,22.6-94.2,41.9
			c-39.5,31.9-74.5,69-112,103.1c-23.2,21.1-53.2,50.7-86,62.3v55.5C45.4,250.1,85.4,200.9,116.8,168.4z"/>
		<path d="M1082.4,178.4c37.9-22.5,90.4,32.9,112.6,55.8c50.5,44.8,109.8,92.8,172.4,38.2c48.8-42.6,91.3-125.6,167.6-82.9
			c49,32.2,79.1,82.9,117.6,125.9c29.8,33.2,62,55.8,107.8,42.1c76.7-23.1,85.3-144.2,159.6-165.6V179
			c-58.4,14.3-76.7,94.6-123.6,129.3c-20.4,15.1-52.9,20.2-77.3,11.3c-31.3-11.4-53.3-45.1-71.6-70.6
			c-36.8-51.2-78.8-136.9-155.4-109.6c-59.4,21.2-84.7,91.7-139.5,121.3c-65.6,19.1-111.4-35.1-157.9-72.2
			c-26.7-21.3-93-64.9-118.3-20.2c-5,8.8-7,19.7-8.1,31.3C1070.8,190.5,1075,182.8,1082.4,178.4z"/>
		<path d="M1061.5,249.8c5.1-14.9,5-33.1,6.7-50C1063.9,215.1,1064,234.5,1061.5,249.8z"/>
		<path d="M1063.2,270.4c-6.3,20.8,3.2,53.3,2.4,73C1072.2,322.9,1063.6,293.6,1063.2,270.4z"/>
		<path d="M1067.3,414.3c5.4-14.2,3.1-32.2,1.5-49.9C1067.4,381.7,1069.3,400.7,1067.3,414.3z"/>
		<path d="M1057.4,428.5c-25.6,22-72.2-6.8-93.7-20.4c-57-36.1-107.3-83.1-159.7-125.3c-43.2-32-106.2-87.5-163.4-56.8
			c-34.4,18.5-57.5,54.2-82.9,82.6c-22.7,25.3-58.7,62.5-97.1,51c-48.2-14.4-63.7-98.8-77.7-138.4c-11.1-31.6-25.8-85.9-63-97.2
			c-34.9-10.5-74.6,23.9-99.2,43.9c-43.1,34.9-82,74.7-123.2,111.8c-25,22.5-60.5,59.5-97.4,72.2v54.5c15.7-8,30.1-19.9,43-30.6
			c27.2-22.6,52.1-47.9,76.8-73.2c48.6-49.6,96.9-110.2,158.1-144.8c37.6-17.2,62.9-7.9,83.3,28.3c18.9,33.5,28.8,71.6,42.5,107.3
			c9.8,25.6,22.4,61.8,48.8,75.1c31.9,16,65.4-10.1,87.6-30.5c33.7-32.5,61.6-77.3,103.3-100.3c45.9-25.3,92,4.9,129.5,32
			c58.2,42.1,109.7,92.9,168.6,134.2c25.8,18.1,111.5,72.8,125.4,12.8c0.2-0.8,0.3-1.7,0.4-2.6
			C1065.3,419.7,1062.1,424.5,1057.4,428.5z"/>
		<path d="M43,307.6c27.2-22.6,52.1-47.9,76.8-73.2c48.6-49.6,96.9-110.2,158.1-144.8c36-16.4,61.5-9.2,81.8,25.4
			c20,34,29.9,73.5,44,110.1c10.2,26.4,23.1,63.3,51.1,75.8c30.5,13.7,62.4-10,83.4-29.9c30.1-30.3,53.8-72,92-93.1
			c46.2-25.4,93.2,5.1,132.2,30.5c60.9,39.7,116.4,87.2,177.5,126.5c25.1,16.2,114.2,72.4,125.4,12.1c0.2-1.2,0.3-2.5,0.3-3.8
			c-2.4,7.4-6.8,13.7-14.4,18c-25.8,14.7-64.8-10.1-86.4-23c-58.5-35.1-111.3-80.6-165.5-121.7c-45-30.7-109.7-84.6-166.8-53.7
			c-32.8,17.8-53.9,51.6-77.6,79.2c-21.6,25.2-56.8,60.5-94.1,49c-47.7-14.7-64.2-98.3-78.5-137.7c-11.4-31.4-26.8-85.3-63.6-96.7
			C284,45.9,243.5,81.1,219,100.9c-42.6,34.5-81.1,73.9-121.8,110.7c-25.5,23-60.4,58.9-97.3,71.7v54.8
			C15.7,330.2,30.1,318.3,43,307.6z"/>
	</g>
</g>
</svg>
