<?xml version="1.0" encoding="UTF-8"?>
<!DOCTYPE svg PUBLIC "-//W3C//DTD SVG 1.1//EN" "http://www.w3.org/Graphics/SVG/1.1/DTD/svg11.dtd">
<!-- Creator: CorelDRAW -->
<svg xmlns="http://www.w3.org/2000/svg" xml:space="preserve" width="2675px" height="436px" version="1.1" style="shape-rendering:geometricPrecision; text-rendering:geometricPrecision; image-rendering:optimizeQuality; fill-rule:evenodd; clip-rule:evenodd"
viewBox="0 0 2052.56 334.51"
 xmlns:xlink="http://www.w3.org/1999/xlink"
 xmlns:xodm="http://www.corel.com/coreldraw/odm/2003">
 <defs>
  <style type="text/css">
   <![CDATA[
    .fil0 {fill:#6E15BC;fill-rule:nonzero}
    .fil1 {fill:#E6E6E6;fill-rule:nonzero}
   ]]>
  </style>
 </defs>
 <g id="Layer_x0020_1">
  <metadata id="CorelCorpID_0Corel-Layer"/>
  <path class="fil0" d="M26.03 319.46l1932.49 1.79c1.77,-0.03 3.39,-0.33 4.83,-0.92 1.46,-0.59 2.83,-1.51 4.09,-2.73l68 -66.4c1.3,-1.27 2.27,-2.66 2.89,-4.13 0.61,-1.45 0.92,-3.11 0.92,-4.97l0 -214.32c0,-3.51 -1.42,-6.68 -3.71,-8.97 -2.35,-2.32 -5.55,-3.77 -9.01,-3.78l-1932.4 -1.78c-1.7,0 -3.33,0.31 -4.82,0.92 -1.48,0.6 -2.86,1.51 -4.09,2.71l-68.09 66.41c-1.3,1.27 -2.27,2.66 -2.89,4.15 -0.62,1.46 -0.93,3.13 -0.93,4.97l0 214.3c0,3.48 1.43,6.66 3.74,8.97 2.33,2.33 5.51,3.78 8.98,3.78zm1932.49 15.05l-1932.49 -1.8c-7.18,0 -13.69,-2.93 -18.38,-7.62 -4.72,-4.72 -7.65,-11.24 -7.65,-18.38l0 -214.3c0,-3.55 0.68,-6.94 2.02,-10.11 1.33,-3.16 3.3,-6.02 5.86,-8.52l68.09 -66.41c2.48,-2.42 5.29,-4.27 8.35,-5.51 3.02,-1.24 6.32,-1.86 9.81,-1.86l1932.4 1.79c7.17,0 13.69,2.92 18.39,7.62 4.7,4.74 7.64,11.23 7.64,18.37l0 214.32c0,3.56 -0.68,6.93 -2.01,10.11 -1.33,3.15 -3.29,5.99 -5.86,8.5l-68 66.4c-2.51,2.44 -5.3,4.3 -8.35,5.54 -3.07,1.25 -6.35,1.87 -9.82,1.86z"/>
  <path class="fil1" d="M1867.43 103.09c26.02,-0.07 52.03,-0.1 78.06,0.05 -0.03,2.09 -0.04,4.18 -0.05,6.27 -0.01,4.18 -3.39,7.59 -7.57,7.64 -18.08,0.24 -36.17,0.03 -54.25,0.01 -4.17,-0.01 -7.6,3.34 -7.68,7.52 -0.06,3.52 -0.12,7.04 -0.19,10.55 -0.09,4.17 -3.5,7.51 -7.67,7.51 -0.19,0 -0.38,0 -0.57,0 -4.18,0 -7.6,-3.35 -7.67,-7.52 -0.16,-8.15 -0.15,-16.29 -0.07,-24.43 0.05,-4.2 3.46,-7.59 7.66,-7.6zm-1698.1 35.49c0.95,-6.07 3.93,-11.69 6.09,-17.43 14.17,33.04 27.42,66.48 41.04,99.75 1.01,2.46 0.73,5.04 -0.77,7.23 -1.49,2.2 -3.8,3.39 -6.46,3.35 -0.26,0 -0.51,-0.01 -0.77,-0.02 -3.2,-0.05 -5.9,-1.94 -7.04,-4.93 -3.57,-9.38 -7.4,-18.66 -11.01,-28.02 -1.13,-2.95 -3.78,-4.82 -6.93,-4.91 -11.73,-0.34 -23.46,-0.15 -35.18,-0.27 0.7,-2.22 1.41,-4.42 2.12,-6.61 1.04,-3.21 3.89,-5.3 7.26,-5.31 5.28,-0.03 10.55,-0.02 15.82,-0.07 2.6,-0.03 4.82,-1.22 6.28,-3.38 1.46,-2.15 1.74,-4.66 0.79,-7.08 -3.74,-9.6 -7.97,-19.01 -11,-28.85 -0.36,-1.17 -0.43,-2.24 -0.24,-3.45zm-14.61 -35.52c0.85,0 1.69,0.01 2.54,0.01 2.58,0 4.79,1.16 6.27,3.27 1.48,2.12 1.8,4.59 0.92,7.02 -14.39,39.62 -30.89,78.47 -45.57,117.99 -1.72,0.04 -3.44,0.07 -5.16,0.1 -2.64,0.04 -4.94,-1.14 -6.44,-3.32 -1.5,-2.17 -1.79,-4.73 -0.81,-7.19 15.7,-39.45 32.16,-78.59 48.25,-117.88zm173.92 5.67c22.19,-11.54 50.94,-7.92 70.3,7.74 -0.88,1.74 -1.77,3.48 -2.67,5.22 -0.99,1.93 -2.55,3.22 -4.63,3.85 -2.07,0.62 -4.09,0.39 -5.97,-0.68 -14,-7.92 -30.98,-11.56 -46.27,-5.41 -0.11,0.05 -0.21,0.09 -0.33,0.13 -12.92,4.53 -15.83,25.68 -3.29,32.29 0.05,0.03 0.1,0.06 0.16,0.08 18.22,9.07 40.27,8.2 57.27,20.15 16.04,11.2 15.53,37.82 0.74,49.9 -0.04,0.03 -0.07,0.06 -0.11,0.09 -12.08,10.28 -28.97,11.21 -44.06,10.09 -15.9,-1.02 -30.81,-7.71 -43.5,-17.06 0.93,-1.92 1.88,-3.84 2.84,-5.75 0.99,-1.98 2.59,-3.32 4.72,-3.94 2.13,-0.61 4.2,-0.34 6.1,0.8 17.25,10.38 38.52,16.1 57.71,8.12 0.05,-0.02 0.1,-0.04 0.15,-0.06 11.68,-4.57 13.12,-22.7 2.93,-29.56 -0.06,-0.05 -0.12,-0.08 -0.18,-0.12 -18.29,-11.58 -42.29,-9.63 -59.81,-22.73 -0.14,-0.1 -0.25,-0.19 -0.37,-0.3 -16.53,-14.03 -10.17,-43.27 8.27,-52.85zm143.32 -5.62c15.57,-0.08 31.14,-0.27 46.68,0.05 22.78,0.14 40.37,23.51 37.77,45.41 -1.76,17.34 -14.84,34.45 -32.97,36.35 -0.07,0 -0.13,0.01 -0.2,0.02 -11.71,0.91 -23.47,0.35 -35.22,0.43 -4.18,0.04 -7.57,3.42 -7.62,7.6 -0.1,10.28 -0.05,20.57 -0.02,30.87 0.02,4.21 -3.39,7.66 -7.6,7.7 -0.22,0 -0.44,0 -0.66,0 -4.22,0.04 -7.69,-3.36 -7.74,-7.58 -0.19,-15.3 -0.3,-30.61 0.05,-45.91 0.1,-4.15 3.48,-7.47 7.63,-7.5 16.87,-0.1 33.79,0.98 50.58,-0.56 0.69,-0.06 1.27,-0.19 1.93,-0.43 20.73,-7.56 20.66,-42.47 0.11,-50.53 -0.36,-0.14 -0.68,-0.24 -1.07,-0.33 -11.62,-2.69 -23.65,-1.61 -35.56,-1.48 -4.14,0.05 -7.5,3.37 -7.58,7.52 -0.15,7.34 -0.16,14.69 -0.13,22.04 0.01,4.19 -3.36,7.63 -7.55,7.7 -0.21,0 -0.42,0.01 -0.64,0.01 -4.23,0.07 -7.73,-3.32 -7.79,-7.55 -0.19,-12.08 -0.16,-24.16 -0.03,-36.24 0.05,-4.18 3.45,-7.57 7.63,-7.59zm150.6 -0.15c0.22,0 0.44,0 0.66,0 4.22,0 7.66,3.43 7.67,7.65 0.14,37.75 0.19,75.51 -0.03,113.27 -0.02,4.21 -3.47,7.63 -7.68,7.62 -0.2,0 -0.41,0 -0.61,0 -4.2,0 -7.63,-3.41 -7.66,-7.62 -0.24,-37.77 -0.21,-75.54 -0.02,-113.28 0.03,-4.22 3.46,-7.64 7.67,-7.64zm84.52 0.15c16.58,-0.02 33.17,-0.38 49.72,0.13 0.07,0 0.13,0 0.19,0.01 23.82,1.33 41.02,27.58 35.23,50.22 -0.05,0.2 -0.09,0.37 -0.13,0.57 -1.93,11.02 -9.62,19.29 -18.64,25.32 -3.44,2.3 -4.43,6.91 -2.25,10.43 6.23,10.03 12.75,19.88 18.96,29.91 1.52,2.46 1.57,5.34 0.14,7.84 -1.43,2.51 -3.93,3.93 -6.82,3.87 -0.14,0 -0.27,-0.01 -0.41,-0.01 -2.66,-0.06 -4.92,-1.34 -6.34,-3.59 -9.53,-15.22 -19.3,-30.28 -28.87,-45.47 -1.49,-2.36 -1.61,-5.12 -0.33,-7.6 1.27,-2.48 3.58,-3.99 6.37,-4.15 4.49,-0.26 8.85,-1.1 12.64,-3.72 0.16,-0.11 0.3,-0.21 0.45,-0.34 14.51,-11.66 12.57,-38.31 -4.34,-46.76 -0.42,-0.21 -0.79,-0.35 -1.23,-0.49 -12.18,-3.65 -25.11,-2.15 -37.79,-2 -4.11,0.05 -7.46,3.33 -7.58,7.45 -0.82,28.09 -0.26,69.79 -0.09,99.08 0.03,4.2 -3.35,7.65 -7.54,7.72 -0.4,0.01 -0.79,0.01 -1.18,0.02 -2.12,0.03 -3.96,-0.7 -5.48,-2.18 -1.51,-1.48 -2.29,-3.29 -2.31,-5.41 -0.41,-37.76 -0.36,-75.51 -0.03,-113.25 0.03,-4.2 3.46,-7.6 7.66,-7.6zm156.53 -0.15c0.23,0 0.45,0 0.68,0 4.21,0 7.65,3.42 7.67,7.63 0.2,37.76 0.28,75.54 -0.03,113.3 -0.03,4.19 -3.45,7.6 -7.65,7.61 -0.21,0 -0.42,0 -0.63,0 -4.22,0.01 -7.67,-3.42 -7.69,-7.64 -0.17,-37.75 -0.15,-75.5 -0.02,-113.25 0.01,-4.22 3.45,-7.65 7.67,-7.65zm117.21 30.65c0.13,0 0.26,0 0.39,0 4.2,0.01 7.62,3.4 7.66,7.6 0.28,27.53 0.01,55.07 0.11,82.62 0.02,4.19 -3.35,7.63 -7.55,7.7 -0.25,0 -0.5,0.01 -0.75,0.01 -2.12,0.03 -3.96,-0.7 -5.48,-2.19 -1.52,-1.49 -2.29,-3.31 -2.3,-5.43 -0.19,-27.64 -0.88,-55.33 0.25,-82.95 0.17,-4.11 3.55,-7.36 7.67,-7.36zm-52.68 -30.42c35.05,-0.27 70.07,-0.16 105.11,-0.05 -0.01,2.07 -0.02,4.13 -0.03,6.19 -0.02,4.19 -3.42,7.6 -7.6,7.64 -29.95,0.28 -59.9,0.3 -89.84,0.01 -4.19,-0.04 -7.58,-3.45 -7.6,-7.63 -0.01,-2.05 -0.02,-4.1 -0.04,-6.16zm202.77 70.86c0.22,-0.01 0.45,-0.02 0.68,-0.03 3.46,-0.12 6.48,1.97 7.56,5.27 3.44,10.44 7.7,20.93 16.25,28.2 0.07,0.07 0.13,0.12 0.2,0.18 14.95,13.66 40.57,13.26 54.68,-1.44 0.12,-0.12 0.22,-0.22 0.34,-0.33 7.81,-7.19 11.02,-17.39 14.59,-27.08 1.14,-3.08 3.95,-5.02 7.23,-5.01 0.42,0 0.84,0.02 1.27,0.04 2.36,0.14 4.34,1.22 5.74,3.13 1.39,1.91 1.82,4.12 1.24,6.42 -4.16,16.42 -13.86,31.59 -28.58,40.36 -0.07,0.05 -0.14,0.09 -0.21,0.14 -20.4,13.1 -49.01,10.61 -67.18,-5.29 -0.04,-0.04 -0.08,-0.07 -0.13,-0.11 -10.72,-8.97 -17.64,-21.53 -20.87,-34.99 -0.55,-2.32 -0.09,-4.54 1.35,-6.44 1.44,-1.89 3.46,-2.94 5.84,-3.02zm19.87 -62.43c17.91,-12.24 43.2,-12.9 61.43,-0.92 0.06,0.04 0.11,0.08 0.18,0.12 13.59,8.39 22.91,22.24 27.42,37.41 0.71,2.39 0.3,4.75 -1.18,6.75 -1.48,2 -3.61,3.09 -6.1,3.11 -0.29,0 -0.57,0 -0.85,-0.01 -3.02,-0.1 -5.54,-1.82 -6.76,-4.59 -4.09,-9.34 -7.6,-19.33 -15.69,-26.01 -0.12,-0.1 -0.22,-0.2 -0.34,-0.3 -13.91,-12.97 -37.24,-13.79 -51.84,-1.54 -0.11,0.1 -0.21,0.18 -0.33,0.27 -8.93,6.69 -13.16,17.1 -17.12,27.22 -1.22,3.11 -4.16,5.02 -7.5,4.86 -0.26,-0.01 -0.52,-0.02 -0.78,-0.04 -2.43,-0.11 -4.47,-1.22 -5.88,-3.2 -1.42,-1.97 -1.81,-4.26 -1.13,-6.6 4.27,-14.73 13.78,-27.85 26.47,-36.53zm160.01 48.33c22.13,0.01 44.27,-0.13 66.4,0.13 0,1.96 0.01,3.92 0.03,5.89 0.04,4.12 -3.17,7.54 -7.29,7.74 -14.23,0.71 -28.49,0.22 -42.73,0.12 -4.21,-0.04 -7.67,3.35 -7.73,7.55 -0.21,14.19 0.07,28.39 -0.08,42.59 -0.05,4.19 -3.48,7.58 -7.67,7.58 -0.33,0 -0.66,0 -0.99,0 -4.22,0 -7.65,-3.42 -7.67,-7.64 -0.08,-18.79 -0.17,-37.59 0.05,-56.37 0.05,-4.2 3.48,-7.59 7.68,-7.59zm-0.16 -56.82c25.84,-0.11 51.7,-0.3 77.54,0.17 -0.05,2.02 -0.08,4.04 -0.1,6.06 -0.04,4.12 -3.34,7.47 -7.46,7.59 -17.82,0.51 -35.66,0.07 -53.48,0.11 -4.19,0.01 -7.61,3.4 -7.66,7.58 -0.04,3.88 -0.08,7.75 -0.14,11.62 -0.06,4.19 -3.48,7.55 -7.66,7.56 -0.33,0 -0.66,0 -0.99,0 -4.19,-0.01 -7.61,-3.39 -7.67,-7.57 -0.11,-8.51 -0.11,-17.03 -0.02,-25.52 0.04,-4.19 3.45,-7.58 7.64,-7.6zm177.51 114.3c29.29,-1.1 58.65,-0.62 87.97,-0.24 -0.01,2.22 -0.03,4.45 -0.04,6.67 -0.01,4.21 -3.44,7.63 -7.64,7.64 -24.25,0.07 -48.49,0.23 -72.74,-0.07 -4.2,-0.05 -7.58,-3.49 -7.58,-7.69 0.01,-2.1 0.01,-4.21 0.03,-6.31zm7.7 -114.36c0.24,0 0.48,0 0.73,0 2.11,-0.02 3.95,0.71 5.45,2.2 1.51,1.49 2.28,3.3 2.29,5.42 0.18,27.63 0.84,55.31 -0.23,82.92 -0.16,4.12 -3.55,7.38 -7.67,7.38 -0.14,0 -0.27,0 -0.41,0 -4.19,0 -7.62,-3.39 -7.67,-7.59 -0.29,-27.53 -0.02,-55.09 -0.09,-82.64 -0.01,-4.2 3.39,-7.64 7.6,-7.69zm143.63 -0.1c0.32,0 0.64,0.01 0.96,0.01 4.21,0.02 7.62,3.45 7.63,7.65 0.09,37.72 0.09,75.46 0,113.2 -0.01,4.21 -3.44,7.65 -7.65,7.66 -0.32,0 -0.64,0 -0.96,0 -4.21,0.01 -7.66,-3.41 -7.69,-7.62 -0.27,-37.76 -0.27,-75.52 0,-113.28 0.03,-4.22 3.49,-7.63 7.71,-7.62zm84.44 57.04c22.1,-0.17 44.19,-0.06 66.3,-0.04 -0.04,2.22 -0.08,4.44 -0.12,6.65 -0.08,4.19 -3.53,7.56 -7.73,7.52 -14.03,-0.1 -28.05,-0.27 -42.07,0 -4.12,0.08 -7.45,3.41 -7.52,7.53 -0.26,13.98 -0.12,27.99 0.02,41.98 0.02,2.12 -0.72,3.96 -2.21,5.47 -1.49,1.51 -3.32,2.27 -5.44,2.28 -0.4,0 -0.79,0 -1.19,0 -2.12,0.01 -3.95,-0.75 -5.45,-2.26 -1.5,-1.5 -2.25,-3.34 -2.23,-5.46 0.12,-18.65 0.1,-37.31 0.02,-55.97 -0.01,-4.21 3.4,-7.67 7.62,-7.7zm-0.1 -56.79c25.79,-0.44 51.61,-0.11 77.43,-0.06 -0.03,2.08 -0.04,4.17 -0.05,6.25 -0.01,4.17 -3.37,7.58 -7.54,7.65 -17.82,0.29 -35.64,-0.08 -53.46,0.08 -4.21,0.04 -7.61,3.48 -7.61,7.69 0.01,3.79 -0.01,7.57 -0.08,11.35 -0.05,2.13 -0.85,3.95 -2.41,5.42 -1.55,1.47 -3.41,2.17 -5.54,2.09 -0.3,-0.01 -0.59,-0.02 -0.89,-0.03 -4.13,-0.15 -7.41,-3.56 -7.39,-7.7 0.04,-8.34 0.04,-16.68 0,-25.02 -0.03,-4.2 3.34,-7.64 7.54,-7.72zm135.95 113.94c28.97,-0.51 57.94,-0.48 86.9,0 -0.01,2.24 -0.02,4.49 -0.02,6.73 -0.01,4.22 -3.45,7.65 -7.67,7.65 -23.85,0.03 -47.72,0.08 -71.58,-0.02 -4.2,-0.02 -7.63,-3.45 -7.64,-7.65 0,-2.24 0,-4.47 0.01,-6.71zm7.67 -57.86c22.83,-0.08 45.64,-0.07 68.47,0.03 -0.01,1.88 -0.01,3.77 -0.01,5.65 0.01,4.22 -3.42,7.67 -7.63,7.69 -14.92,0.07 -29.84,-0.08 -44.76,-0.01 -4.2,0.02 -7.62,3.43 -7.64,7.63 -0.02,4.23 -0.02,8.46 -0.04,12.7 -0.01,4.22 -3.46,7.64 -7.68,7.64 -0.23,0 -0.47,0 -0.7,0 -4.2,-0.01 -7.62,-3.41 -7.66,-7.61 -0.07,-8.69 -0.07,-17.4 0,-26.11 0.04,-4.19 3.45,-7.6 7.65,-7.61z"/>
 </g>
</svg>
